<mxfile host="multicloud-diagrams" agent="PIP package multicloud-diagrams. Generate resources in draw.io compatible format for Cloud infrastructure. Copyrights @ Roman Tsypuk 2023. MIT license." type="MultiCloud">
	<diagram id="diagram_1" name="AWS components">
		<mxGraphModel dx="1015" dy="661" grid="1" gridSize="10" guides="1" tooltips="1" connect="1" arrows="1" fold="1" page="1" pageScale="1" pageWidth="850" pageHeight="1100" math="0" shadow="1">
			<root>
				<mxCell id="0"/>
				<mxCell id="1" parent="0"/>
				<mxCell id="vertex:data_brew:arn:aws:data_brew:us-west-1:123456789012:data_brew/123" value="&lt;b&gt;Name&lt;/b&gt;: Registry for images&lt;BR&gt;&lt;b&gt;ARN&lt;/b&gt;: arn:aws:data_brew:us-west-1:123456789012:data_brew/123&lt;BR&gt;-----------&lt;BR&gt;&lt;b&gt;DatasetName&lt;/b&gt;: population&lt;BR&gt;&lt;b&gt;EncryptionMode&lt;/b&gt;: SSE-S3&lt;BR&gt;&lt;b&gt;Name&lt;/b&gt;: Demo Project&lt;BR&gt;&lt;b&gt;Type&lt;/b&gt;: RECIPE&lt;BR&gt;&lt;b&gt;LogSubscription&lt;/b&gt;: ENABLE&lt;BR&gt;&lt;b&gt;MaxCapacity&lt;/b&gt;: 3&lt;BR&gt;&lt;b&gt;MaxRetries&lt;/b&gt;: 5&lt;BR&gt;&lt;b&gt;CompressionFormat&lt;/b&gt;: SNAPPY&lt;BR&gt;&lt;b&gt;Format&lt;/b&gt;: PARQUET&lt;BR&gt;&lt;b&gt;MaxOutputFiles&lt;/b&gt;: 128&lt;BR&gt;&lt;b&gt;DataCatalogId&lt;/b&gt;: xraf12asf&lt;BR&gt;&lt;b&gt;DatabaseName&lt;/b&gt;: crawler&lt;BR&gt;&lt;b&gt;TableName&lt;/b&gt;: Dataset1" style="sketch=0;outlineConnect=0;fontColor=#232F3E;fillColor=#8C4FFF;strokeColor=#ffffff;dashed=0;verticalLabelPosition=bottom;verticalAlign=top;align=left;html=1;fontSize=12;fontStyle=0;aspect=fixed;shape=mxgraph.aws4.resourceIcon;resIcon=mxgraph.aws4.glue_databrew;" parent="1" vertex="1">
					<mxGeometry width="78" height="78" as="geometry"/>
				</mxCell>
			</root>
		</mxGraphModel>
	</diagram>
</mxfile>